# xmcd
#
# Track frame offsets:
#	150
#	12076
#	24498
#	35886
#	49063
#	62427
#	74968
#	88675
#	101369
#	114303
#	127727
#	143940
#	156666
#	169573
#	182389
#	196168
#	207069
#	220238
#	235965
#	249705
#
# Disc length: 3512 seconds
#
# Revision: 0
# Processed by: cddbd v1.5.1PL0 Copyright (c) Steve Scherf et al.
# Submitted via: dBpowerAMP V4.0
#
DISCID=170db614
DTITLE=Big Bill Broonzy - Can't Be Satisfied
DYEAR=1900
DGENRE=Blues
TTITLE0=Trucking little woman
TTITLE1=Good liquor gonna carry me down
TTITLE2=Baby I done got wise
TTITLE3=Saturday night rub
TTITLE4=C and A blues
TTITLE5=I can't be satisfied
TTITLE6=Mistreatin' mama blues
TTITLE7=Rockin' chair baby
TTITLE8=Bull cow blues
TTITLE9=Flat foot Susie with her yes yes
TTITLE10=The southern blues
TTITLE11=Pig meat strut
TTITLE12=How you want it done
TTITLE13=Barrel house when it rains
TTITLE14=Keep your mind on it
TTITLE15=Grandma's farm
TTITLE16=Jivin' Mr. Fuller blues
TTITLE17=Down in the basement blues
TTITLE18=Beedle um bum
TTITLE19=Key to the highway
EXTD=
EXTT0=
EXTT1=
EXTT2=
EXTT3=
EXTT4=
EXTT5=
EXTT6=
EXTT7=
EXTT8=
EXTT9=
EXTT10=
EXTT11=
EXTT12=
EXTT13=
EXTT14=
EXTT15=
EXTT16=
EXTT17=
EXTT18=
EXTT19=
PLAYORDER=
